<svg xmlns="http://www.w3.org/2000/svg" viewBox="0 0 96 21">
  <path
    d="M9.234 1.172h1.313l1.125.14 1.078.282.469.187.094.094v.89l1.124.657 1.313.75 1.219.703.89.516.235.187v5.531l.468.141.375.234v.375l-.28 1.079-.376.937-.515.984-.563.797-.515.61-.61.609-.422.328-.234-.094-.469-.28-.234-.048-.844.469-1.125.656-1.172.657-.797.468-.703.422-.187-.047-.844-.468-1.125-.657-2.625-1.5-.234.047-.47.328-.234.094-.656-.563-.375-.375-.422-.515L2.344 15l-.422-.75-.328-.75-.328-.984-.188-.985.375-.234.422-.235.047-5.484.469-.328 1.078-.61 1.125-.656 1.078-.609.937-.563h.094l-.047-.234v-.75l.375-.187.563-.188 1.218-.234Zm0 0"
    style="stroke:none;fill-rule:nonzero;fill:#fefefe;fill-opacity:1"
  />
  <path
    d="m9.938 4.688.234.046 1.125.657 1.312.75 1.22.703.89.515.094.094v5.484l-.47.282-1.218.703-2.625 1.5-.516.281-1.125-.656-2.625-1.5-1.03-.61V7.454l.234-.187.843-.47 1.125-.655 1.172-.657 1.125-.656ZM86.953 5.906h1.313l.234.14.281.329 1.313 2.344.61 1.078.655 1.172.47.844.093.046V6l.094-.094h1.125l.093.094.047 3.516v2.578l-.047.89-.187.375-.234.188-.141.047h-1.219l-.281-.14-.328-.376-.703-1.265-.657-1.126-.609-1.124-.656-1.126-.422-.75-.047 5.72-.14.187H86.53l-.14-.14V6.608l.14-.421.281-.235ZM30.516 5.906h4.828l.61.188.374.328.281.562.141.61v1.125l-.188.75-.28.469-.376.28-.328.141-.234.047.375.656.656 1.126.61 1.03-.047.329-.047.047h-1.313l-.187-.235-1.22-2.156-.421-.75-1.969-.047v3l-.14.188h-1.125l-.094-.14-.047-.235V9.28l.094-.187.093-.047L34.922 9l.234-.14.14-.235.048-.281v-.375l-.094-.375-.188-.235-.187-.046-4.36-.047-.14-.329v-.75ZM62.016 5.906h4.5l.093.094.047.234v.797l-.14.235-4.032.046-.14.094-.047.14V8.72l.14.234L65.626 9l.469.14.422.376.234.515.094.516v1.547l-.14.61-.235.421-.375.328-.516.14h-4.547l-.14-.14-.047-.234v-.703l.093-.235.047-.047 4.172-.046.188-.094.094-.422v-.703l-.094-.563-3.516-.047-.469-.234-.28-.375-.188-.61-.047-.374V7.5l.14-.656.235-.469.375-.328Zm0 0"
    style="stroke:none;fill-rule:nonzero;fill:#000;fill-opacity:1"
  />
  <path
    d="m6.703 2.766.516.28 1.078.61.797.469.047.14-1.032.563-.796.469-2.438 1.406-.422.234-.047 5.532-.234-.094-1.219-.703-1.031-.61V5.579l.469-.328 1.078-.61 1.125-.656 1.078-.609ZM13.266 2.766l.703.375 1.125.656 1.312.75 1.219.703.469.328v5.484l-1.125.657-1.219.703h-.14l-.047-5.485-1.079-.609-1.125-.656-1.312-.75-1.125-.656-.047-.141.938-.516 1.124-.656ZM14.766 13.875h.046v2.86l-.937.515-1.125.656-1.172.657-.797.468-.703.422-.187-.047-.844-.468-1.125-.657-2.297-1.312-.422-.235v-2.812l.188.047 1.265.703 1.125.656 1.313.75.89.516.563-.282.797-.468 1.312-.75 1.219-.703ZM9.984 7.031l.657.328 1.125.657.984.562v3.188l-.469.28-1.219.704-.984.563-.234-.047-1.125-.657L7.64 12l-.375-.234V8.578l1.078-.61 1.219-.702ZM80.297 5.813h.562l.422.187.328.375.563 1.36.984 2.437.703 1.734.563 1.406-.047.235-.047.047h-1.266l-.234-.375-2.016-5.063-.187-.469v-.093h-.094l-.047.234-.562 1.453-.516 1.313 1.125.047.235.14.375.89-.047.282-.094.094-.281.047H78.75l-.047.234-.469 1.172-.093.094h-1.313l-.094-.235.282-.75 1.64-4.078.797-1.969.281-.421.235-.188ZM24.281 5.813h.61l.375.187.234.234.234.375.844 2.11.703 1.734 1.032 2.531.093.235v.328l-.093.047h-1.22l-.187-.235-2.015-5.015-.282-.703-.187.375-.563 1.453-.468 1.172h1.172l.187.093.375.891v.281l-.094.14-.234.048h-1.969l-.562 1.36-.094.14h-1.313l-.093-.094.047-.375.75-1.828 1.78-4.453.282-.563.188-.234ZM52.266 5.906h1.359l.234.235.47.656.608.89.47.657v.094l.234-.235 1.312-1.781.328-.422.094-.094h1.313L58.78 6l-.047.328-.656.89-.469.657-1.218 1.688.093.234.563.797.75 1.078.656.937.422.61v.281l-.094.094h-1.36l-.374-.469-.61-.89-.609-.844-.422-.61-.187.235-.516.703-.656.937-.563.797-.14.14H52.03l-.093-.093.046-.328 1.125-1.594.61-.844.61-.89.187-.235-.094-.234-1.219-1.688-.562-.796-.422-.61-.047-.187ZM39.047 5.813h1.266l.187.28.563 1.407 1.359 3.375.328.844.094.047.047-.235 1.687-4.265L45.094 6l.14-.188h1.313l.047.047v.329l-1.828 4.546-.563 1.407-.375.843-.281.375-.375.188-.14.047h-.516l-.47-.235-.28-.328-.703-1.687-.657-1.64-.703-1.735-.75-1.875.047-.235ZM70.64 5.906h3.985l.14.14v1.079l-.14.14-3.703.048-.422.14-.188.328-.093.61v2.718l.094.61.14.281.281.14.235.047 3.703.047.094.141v1.078l-.094.14H70.64l-.47-.093-.421-.188-.375-.328-.281-.421-.188-.563-.094-.656V8.109l.141-.796.188-.47.328-.421.375-.281.515-.188Zm0 0"
    style="stroke:none;fill-rule:nonzero;fill:#000;fill-opacity:1"
  />
  <path
    d="m9.938 6.094.234.047 1.125.656 1.219.703 1.03.61v4.124l-.608.375-2.438 1.407-.375.234-.281-.047-1.313-.75-1.219-.703-.796-.469-.047-.047V8.11l1.125-.656 1.312-.75Zm.046.937-1.265.703-.797.47-.656.374v3.188l2.109 1.218.563.329.234-.047 2.297-1.313.281-.187V8.578l-1.172-.656-.797-.469-.75-.422Zm0 0"
    style="stroke:none;fill-rule:nonzero;fill:#fefefe;fill-opacity:1"
  />
  <path
    d="M48.703 5.906h1.125l.14.188v7.312l-.14.188H48.75l-.14-.14-.047-.188V6.187l.093-.234ZM18.89 11.484h.047v.375l-.28 1.079-.376.937-.515.984-.563.797-.515.61-.61.609-.422.328h-.047v-3.797l.797-.469 2.438-1.406ZM1.078 11.531l.234.094.844.469 2.25 1.312v3.844l-.375-.281-.468-.422-.516-.563-.656-.89-.47-.844-.327-.75-.328-.984ZM9.234 1.172h1.313l1.125.14 1.078.282.469.187v.14l-1.031.563-.797.47-1.313.75-.234-.048L8.719 3l-1.172-.656-.797-.469-.047-.094.75-.281 1.078-.234Zm0 0"
    style="stroke:none;fill-rule:nonzero;fill:#000;fill-opacity:1"
  />
</svg>
