<svg xmlns="http://www.w3.org/2000/svg" viewBox="0 0 96 21">
  <path
    d="M9.61.938h1.218l1.219.14.984.234.797.282.047.14v.235l.094.14v.657l.234.093 1.266.704.703.421 1.219.704.984.562.516.328.047 5.578.515.281.047.329.281.093v.422l-.187.844-.375 1.031-.516 1.078-.562.844-.516.656-.938.938-.375.281-.187-.047-.656-.375-.235.047-.843.469-1.125.656-1.313.75-1.125.656-.375.235-.234-.047-.516-.281-1.078-.61-.797-.468-1.312-.75-1.125-.657-.235.047L4.5 18l-.234-.047-.797-.75L3 16.688l-.563-.75-.421-.704-.375-.75-.375-.937-.282-1.031-.046-.235v-.375l.796-.469.047-.046V5.766l.094-.235.61-.375 1.312-.75 1.125-.656 1.219-.703.656-.375V1.64l.281-.188.984-.281L9.142.984Zm0 0"
    style="stroke:none;fill-rule:nonzero;fill:#656564;fill-opacity:1"
  />
  <path
    d="m10.313 4.688.562.28L12 5.626l1.219.703 1.312.75.797.469.047.047v5.86l-1.313.75-2.437 1.405-1.125.657-.234.047-1.125-.657-1.313-.75-1.125-.656-1.312-.75-.094-.094V7.594l1.125-.657 3.656-2.109ZM87.938 6.469h1.453l.28.187.329.516.703 1.266.656 1.124.61 1.126.61 1.078.374.609V6.844l.094-.328.047-.047h1.125l.094.093V13.5l-.141.375-.281.234-.188.047h-1.172l-.281-.14-.328-.375-.703-1.266-.61-1.078-.656-1.172L89.297 9l-.422-.75-.047 5.719-.187.187h-1.032l-.14-.14V7.125l.14-.375.235-.234Zm0 0"
    style="stroke:none;fill-rule:nonzero;fill:#fefefe;fill-opacity:1"
  />
  <path
    d="m6.797 2.672.281.094 2.25 1.312.094.094-.516.328L6.47 5.906l-1.125.657-.89.515-.048 5.813-.234-.094-1.313-.75-.937-.563-.14-.093V5.766l.093-.235.61-.375 1.312-.75 1.125-.656 1.219-.703ZM13.875 2.063l.094.046v.657l.234.093 1.266.704.703.421 1.219.704.984.562.516.328.047 5.578.515.281-.14.141-.235-.047-.281-.047-.844.47-1.125.655-.515.282-.047-.282V7.08l-1.078-.61-1.126-.657-1.312-.75-1.125-.656-.375-.234.188-.14 1.218-.704.985-.562.14-.094.047-.563ZM5.297 14.484l.234.094 1.172.656.797.47 2.438 1.405.328.188.234-.047.844-.469 1.125-.656 1.312-.75 1.125-.656.469-.235.047 3-.797.422-.797.469-1.312.75-1.125.656-.938.563-.234-.047-.516-.281-1.078-.61-.797-.468-1.312-.75-1.125-.657-.094-.047ZM10.266 7.219l.234.047 1.172.656.797.469.703.421.047.047v3.329l-1.125.656-1.219.703-.469.281-.281-.094L9 13.078l-1.219-.703-.328-.234V8.859l.703-.421 1.219-.704ZM31.594 6.469h4.922l.515.187.375.328.235.422.187.75v1.078l-.14.657-.235.468-.187.235-.375.234-.282.094h-.187l.516.937.75 1.266.374.656v.235l-.14.14h-1.266l-.187-.234-1.219-2.156-.422-.75-1.969-.047v3l-.187.187H31.64l-.141-.14-.047-.094V9.797l.14-.188.61-.046 3.89-.047.235-.235.047-.14V8.25l-.14-.281L36 7.875l-4.36-.047-.14-.094-.047-.14v-.89l.047-.188ZM63 6.469h4.64l.094.187v.985l-.14.187-4.078.047-.094.094-.047.187v1.078l.094.235.14.047 3.188.046.469.188.28.234.282.563.094.422v1.781l-.14.516-.188.375-.375.328-.328.14-.282.047h-4.5l-.14-.14V12.89l.187-.141 4.219-.047.094-.094.047-.234v-1.078l-.094-.281-.094-.047L63 10.922l-.375-.14-.375-.329-.188-.422-.093-.375-.047-.469v-.984l.094-.656.187-.469.375-.422ZM81.516 6.328l.515.047.375.234.281.329.704 1.687.562 1.406L85.36 13.5l.141.375-.047.234-.094.047h-1.218l-.235-.375-1.969-4.922-.234-.562v-.14h-.094l-.14.468-.75 1.922-.281.656h1.265l.14.14.376.891-.047.282-.094.093-2.203.047-.516 1.313-.187.187h-1.266l-.094-.14.094-.422.516-1.266 1.453-3.61.61-1.5.28-.515.422-.281ZM25.547 6.328l.469.047.375.188.28.328.423.984.984 2.438 1.031 2.53.375.938v.281l-.093.094h-1.22l-.187-.234-2.015-5.016-.282-.703-.093.14-1.032 2.626-.093.234h1.265l.141.14.328.798v.328l-.14.14-2.157.047-.562 1.36-.14.14h-1.267l-.093-.094.047-.374.656-1.641 1.36-3.375.609-1.5.28-.469.376-.281ZM53.344 6.469h1.406l.375.468.61.891.75 1.078V9l.234-.234.468-.657.657-.89.562-.75h1.36l.093.093v.235l-.468.656-1.828 2.531-.094.235.468.656.75 1.078.657.938.61.89v.281l-.142.094h-1.265l-.234-.234-.61-.844-.656-.937-.563-.797-.187.187-.516.75-.562.797-.61.844-.234.234h-1.266l-.093-.094v-.28l1.687-2.391.61-.844.28-.422-.187-.328-.515-.703-.563-.797-.61-.844-.468-.703.047-.234ZM40.219 6.328h1.078l.14.047.376.844 1.968 4.922.094.14.516-1.265.937-2.391.844-2.11.187-.187h1.032l.28.094-.046.422-1.969 4.922L45 13.359l-.281.47-.469.28-.188.047h-.421l-.375-.14-.328-.282-.282-.562-1.875-4.64-.75-1.876v-.234ZM74.203 6.422h.656l.891.047.094.093.047.375v.516l-.094.328-.094.047-3.797.047-.375.188-.14.28-.047.235v3.469l.14.422.235.187.187.047 3.703.047.235.14.047.282v.61l-.094.327-.094.047h-3.937l-.657-.14-.468-.282-.329-.375-.234-.468-.14-.61-.047-.469V8.767l.093-.704.235-.656.281-.375.375-.328.469-.187.234-.047Zm0 0"
    style="stroke:none;fill-rule:nonzero;fill:#fefefe;fill-opacity:1"
  />
  <path
    d="m10.219 6.188.328.046 1.125.657 2.437 1.406v4.406l-.468.281-1.125.657-2.11 1.218-.187-.046-.844-.47-1.125-.655-1.219-.704-.468-.28v-4.36l.421-.281 1.079-.61 1.124-.656Zm.047 1.03-1.313.75-1.219.704-.28.187v3.282l.421.28 2.438 1.407.234-.094 1.078-.609 1.125-.656.469-.281V8.858l-.422-.28-1.078-.61-1.125-.657-.188-.093Zm0 0"
    style="stroke:none;fill-rule:nonzero;fill:#656564;fill-opacity:1"
  />
  <path
    d="M49.781 6.469h1.125l.094.047.047.14v7.313l-.188.187h-1.03l-.142-.14-.046-.094V6.656ZM9.61.938h1.218l1.219.14.984.234.797.282-.187.187-1.172.657-1.125.656-.985.562-.656-.375-.844-.469-2.015-1.171.14-.141.704-.234 1.125-.235ZM.938 11.953l.562.281 1.125.657 1.219.703.562.328V18l-.187-.094-.75-.703L3 16.688l-.563-.75-.421-.704-.375-.75-.375-.937-.282-1.031-.046-.235ZM19.734 11.953h.047l-.047.61-.187.703-.422 1.125-.516.984-.468.703-.516.656-.938.938-.328.234h-.047v-3.984l1.032-.61 1.218-.703.985-.562Zm0 0"
    style="stroke:none;fill-rule:nonzero;fill:#fefefe;fill-opacity:1"
  />
</svg>
