<svg xmlns="http://www.w3.org/2000/svg" viewBox="0 0 30 30">
  <path d="M14.023.3h.993l.449.016.691.059.672.09.707.12.613.134.555.152.48.149.602.21.227.075.027.03-.016.599-.011.496v.48l.254.137.312.18.3.164.286.164.36.21.347.196.313.18.363.21.387.223.421.242.36.207.375.211.3.18.239.137.39.222.254.153.407.222.195.122.285.164.36.195.3.18.375.21.254.153.164.101.078.079.012.117.016 8.746.09.031 1.203.598.09.062.027.133-.027.258-.079.375-.238.957-.148.527-.137.39-.238.645-.168.387-.106.227-.18.375-.117.242-.152.281-.21.363-.192.329-.184.285-.254.375-.195.27-.149.195-.21.27-.165.194-.12.153-.27.297-.137.168-.687.687-.121.106-.18.164-.121.105-.164.152-.121.106-.196.148-.058.032h-.121l-.297-.168-.301-.196-.332-.191-.313-.184-.105.032-.195.12-.36.196-.258.148-.285.164-.734.422-.36.211-.417.239-.364.21-.84.48-.402.224-.3.18-.391.226-.211.12-.223.134-.375.21-.437.255-.375.21-.36.211-.27.149-.226.137-.207.105-.105-.016-.676-.375-.375-.226-.418-.238-.274-.153-.253-.148-.391-.227-.223-.133-.39-.226-.797-.465-.375-.21-.328-.192-.375-.211-.36-.211-.375-.211-.332-.195-.39-.223-.344-.211-.39-.227-.36-.195-.149-.09-.105.016-.227.152-.285.18-.285.195-.223.149-.136.074-.149.047-.078-.016-.207-.164-.21-.18-.227-.21-.118-.106-.57-.57-.105-.121-.18-.18-.106-.117-.18-.211-.163-.196-.168-.21-.18-.223-.195-.274-.18-.253-.36-.54-.12-.195-.223-.39-.18-.317-.258-.508-.195-.422-.191-.449-.227-.597-.137-.407-.253-.898-.133-.543-.09-.48-.047-.297v-.106l.105-.105.27-.153.39-.207.329-.18.21-.12h.032l.016-8.868.027-.058.332-.196 1.05-.597.344-.196.223-.136L4.02 6l.27-.148.194-.122.286-.164.375-.21.332-.196.343-.195.39-.227.36-.207.344-.195.227-.137.375-.21.285-.165.328-.195.375-.207.195-.121.676-.375.047-.031-.031-.508-.047-.723V1.32l.078-.074.36-.137.538-.18.45-.132.343-.094.75-.148.813-.133.465-.063.496-.043Zm0 0" style="stroke:none;fill-rule:nonzero;fill:#010001;fill-opacity:1"/>
  <path d="m14.7 8.219.09.031.194.121.407.223.613.36.375.21.3.18.376.21.39.227.227.133.375.211.328.195.375.211.328.196.39.222.376.211.226.137.328.191.047.032v6.601l-.12.074-.376.211-.418.254-.36.195-.331.196-.36.21-.343.192-.364.211-.343.195-.328.196-.348.195-.207.121-.512.3-.375.208-.406.242-.418.238-.074.047h-.09l-.633-.36-.36-.21-.39-.227-.96-.554-.36-.211-.375-.207-.403-.242-.316-.18-.344-.195-.39-.223-.72-.422-.39-.227-.047-.043v-6.554l.063-.063.387-.222.3-.18.407-.227.375-.222.406-.227.402-.238.27-.152.422-.239.3-.18.27-.152.402-.238.438-.242.449-.27.375-.21.254-.15Zm0 0" style="stroke:none;fill-rule:nonzero;fill:#d2d3d3;fill-opacity:1"/>
  <path d="m14.684 5.953.09.016.437.258.285.164.375.21.254.149.734.422.332.191.329.184.253.148.227.133.375.211.36.211.421.238.39.227.255.148.402.227.3.18.317.18.36.21.39.227.239.133.363.21.238.149.016.016-.016 8.878-.406.227-.254.148-.676.391-.36.211-.343.195-.226.133-.317.184-.344.191-.328.195-.375.211-.332.196-.418.242-.347.191-.254.153-.239.132-.39.227-.254.148-.274.153-.253.148-.286.164-.375.211-.375.227-.21.12-.06.013-.21-.106-.613-.36-.375-.206-.227-.137-.402-.227-.364-.207-.628-.363-.36-.207-.422-.242-.386-.223-.364-.21-.734-.423-.344-.195-.332-.191-.418-.242-.254-.149-.316-.18-.39-.226-.329-.195-.21-.122-.016-.027v-8.82l.046-.074.403-.243.347-.195.614-.36.375-.21.406-.239.375-.21.719-.418.316-.18.36-.211.316-.18.238-.136.227-.133.343-.196.239-.136.36-.211.316-.18.343-.195.258-.149.27-.148.359-.211.39-.227Zm.015 2.266-.3.18-.419.242-.285.164-.332.195-.402.227-.227.132-.285.164-.27.153-.3.18-.313.18-.27.148-.226.136-.343.196-.243.132-.3.18-.375.211-.403.242-.39.223-.032.047v6.554l.047.043.418.243.438.254.386.226.946.54.226.136.84.476.39.227.72.422.421.238.254.149.317.18.285.167h.09l.36-.21.269-.15.3-.183.375-.207.508-.3.348-.196.719-.422.375-.207.254-.152.343-.195.512-.297.375-.211.406-.242.418-.239.121-.074V11.52l-.3-.18-.36-.211-.344-.195-.39-.223-.36-.211-.375-.21-.3-.18-.407-.223-.3-.184-.313-.18-.375-.207-.375-.226-.375-.211-.36-.207-.632-.363-.149-.09Zm0 0" style="stroke:none;fill-rule:nonzero;fill:#fcfcfc;fill-opacity:1"/>
  <path d="m9.434 2.879.21.121.376.21.3.18.418.239.39.226.196.122.375.207.242.152.375.21.36.208.222.137.168.09.27.164.027.046-.312.196-.254.148-.348.195-.586.344-.328.18-.3.18-.419.242-.363.21-.281.165-.332.18-.375.222-.344.195-.36.211-.347.196-.418.242-.332.191-.402.227-.301.18-.406.226-.434.254-.36.21-.062.044-.015 8.867-.09-.031-.418-.238-.781-.454-.407-.238-.402-.226-.422-.239-.39-.226-.254-.149-.223-.136-.258-.149-.238-.137-.09-.043.016-8.867.027-.058.332-.196 1.05-.597.344-.196.223-.136L4.02 6l.27-.148.194-.122.286-.164.375-.21.332-.196.343-.195.39-.227.36-.207.344-.195.227-.137.375-.21.285-.165.328-.195.375-.207.195-.121.676-.375Zm0 0" style="stroke:none;fill-rule:nonzero;fill:#d2d3d3;fill-opacity:1"/>
  <path d="M19.98 2.73h.016l.016.18.254.137.312.18.3.164.286.164.36.21.347.196.313.18.363.21.387.223.421.242.36.207.375.211.3.18.239.137.39.222.254.153.407.222.195.122.285.164.36.195.3.18.375.21.254.153.164.101.078.079.012.117.016 8.746.031.015-.137.043-.386.227-.438.254-.375.21-1.152.661-.364.21-.328.18-.226.133-.36.211-.195.106h-.027l-.016-.18v-8.16l-.016-.512-.718-.418-.422-.242-.39-.223-.735-.421-.285-.164-.418-.239-.332-.195-.344-.195-.406-.243-.586-.328-.36-.21-.418-.239-.39-.226-.36-.211-.347-.196-.223-.133-.348-.195-.328-.195-.27-.164.044-.047.39-.223.211-.12.27-.165.332-.18.36-.21.523-.317.285-.164.238-.137.3-.164.45-.27.211-.12.3-.164Zm2.415 18.075h.046v1.648l.012 1.668v1.242l-.09.016-.254.152-.328.18-.258.148-.285.164-.734.422-.36.211-.417.239-.364.21-.84.48-.402.224-.3.18-.391.226-.211.12-.223.134-.375.21-.437.255-.375.21-.36.211-.27.149-.226.137-.207.105-.105-.016-.676-.375-.375-.226-.418-.238-.274-.153-.253-.148-.391-.227-.223-.133-.39-.226-.797-.465-.375-.21-.328-.192-.375-.211-.36-.211-.375-.211-.332-.195-.39-.223-.344-.211-.39-.227-.36-.195-.149-.09-.078-.011.016-1.606.016-2.836.015-.09.09.032.254.148.406.227.36.207.375.21.359.211.258.149.386.226.274.149.254.152.344.196.39.222.735.422.3.18.328.18.196.12.347.196.387.223.438.253.375.211.3.18.375.211.118.059.105-.012.348-.195.402-.243.375-.21.438-.254.375-.211.433-.254.238-.133.422-.242.227-.133.375-.211.387-.227.257-.148.375-.211.297-.18.375-.21.39-.223.36-.211.348-.196.36-.21.374-.211.36-.207Zm0 0" style="stroke:none;fill-rule:nonzero;fill:#fcfcfc;fill-opacity:1"/>
  <path d="m14.7 8.219.09.031.194.121.407.223.613.36.375.21.3.18.376.21.39.227.227.133.375.211.328.195.375.211.328.196.39.222.376.211.226.137.328.191.047.032v6.601l-.12.074-.376.211-.418.254-.36.195-.331.196-.36.21-.343.192-.364.211-.343.195-.328.196-.348.195-.207.121-.512.3-.375.208-.406.242-.418.238-.074.047h-.09l-.633-.36-.36-.21-.39-.227-.96-.554-.36-.211-.375-.207-.403-.242-.316-.18-.344-.195-.39-.223-.72-.422-.39-.227-.047-.043v-6.554l.063-.063.387-.222.3-.18.407-.227.375-.222.406-.227.402-.238.27-.152.422-.239.3-.18.27-.152.402-.238.438-.242.449-.27.375-.21.254-.15Zm-.028 1.547-.332.18-.328.195-.258.148-.285.164-.164.094-.407.238-.148.09-.164.09-.39.226-.317.18-.254.149-.36.21-.374.211-.332.196-.239.133-.015.105v4.934l.047.078.375.207.253.152.418.238.364.211 1.093.63.317.179.328.195.375.211.39.227.36.207.105.047.36-.196.375-.226.422-.239.433-.253.375-.211.407-.243.375-.207.359-.21.328-.196.348-.195.36-.211.222-.133.015-.016v-5.07l-.375-.226-.39-.223-.403-.242-.39-.223-.348-.195-.402-.242-.348-.196-.387-.222-.316-.18-.434-.258-.316-.18-.238-.132Zm0 0" style="stroke:none;fill-rule:nonzero;fill:#010001;fill-opacity:1"/>
  <path d="m1.828 7.441.106.043.39.227.164.09.137.09.18.09.09.058.046.016v.03L3 8.103l.36.195.136.09.285.148.223.137.168.09.191.117.168.09.239.136.058.032v.027l.094.031.582.328.09.047h.168l-.063.059-.015 8.867-.09-.031-.418-.238-.781-.454-.407-.238-.402-.226-.422-.239-.39-.226-.254-.149-.223-.136-.258-.149-.238-.137-.09-.043.016-6.96.011-1.817Zm0 0" style="stroke:none;fill-rule:nonzero;fill:#b3b4b4;fill-opacity:1"/>
  <path d="m7.035 20.82.09.032.254.148.406.227.36.207.375.21.359.211.258.149.386.226.274.149.254.152.344.196.39.222.735.422.3.18.328.18.196.12.347.196.387.223.438.253.375.211.3.18.375.211.118.059.136-.012-.074.09-.016.386v1.965l.016 2.133-.105-.016-.676-.375-.375-.226-.418-.238-.274-.153-.253-.148-.391-.227-.223-.133-.39-.226-.797-.465-.375-.21-.328-.192-.375-.211-.36-.211-.375-.211-.332-.195-.39-.223-.344-.211-.39-.227-.36-.195-.149-.09-.078-.011.016-1.606.016-2.836Zm0 0" style="stroke:none;fill-rule:nonzero;fill:#b2b3b3;fill-opacity:1"/>
  <path d="M19.98 2.73h.016l.016.18.254.137.21.117.028.074h.047v.032l.074.015.031.016v.027l.074.016.032.031.011.031.079.028.101.046v.032l.078.011.164.122.133.074.121.09.18.09.031.03.09.032.148.074.137.09.137.074v.031l.09.032.222.133.137.074.117.062.184.106.074.043v.03l.149.06v.03l.058.016.285.149.168.09.09.058.18.09v.031h.027v.032l.063.015.18.106.238.117.316.18.074.046v.032l.063.011.101.063.106.043.031.031.074.031.211.118.043.03v.032l.063.016.148.09.047.011v.032l.074.015.121.074.164.09.27.153.21.117v.031l.09.031.06.043.105.047v.027l.047-.011.101.074.121.059v.03l.063.016.133.075.074.043v.03l.21.106v.043h.032l-.031.063-.106.074-.18.09-.316.18-.191.12-.242.133-.36.211-.422.243-.386.222-.258.153-.39.222-.794.465-.12.063-.017.027-.011.496h-.016l-.016-.512-.718-.418-.422-.242-.39-.223-.735-.421-.285-.164-.418-.239-.332-.195-.344-.195-.406-.243-.586-.328-.36-.21-.418-.239-.39-.226-.36-.211-.347-.196-.223-.133-.348-.195-.328-.195-.27-.164.044-.047.39-.223.211-.12.27-.165.332-.18.36-.21.523-.317.285-.164.238-.137.3-.164.45-.27.211-.12.3-.164ZM7.078 10.336l.031.016-.043.043.012.046.152.059.329.18.316.18.36.21.437.254.148.09.106.063h.09l.105-.063.059.016-.164.09-.016.03v6.587l.09.027.36.211.437.254.386.226.946.54.226.136.84.48.39.223.72.422.421.239.254.152.317.18.285.164.074.015-.047.059.016.015v1.442l.015.719h.075l-.043.043-.09-.012-.375-.211-.195-.121-.375-.211-.364-.207-.312-.184-.375-.207-.332-.195L12 22.14l-.36-.211-.84-.48-.331-.196-.344-.195-.36-.207-.374-.211-.438-.254-.418-.242-.254-.149-.316-.18-.39-.226-.329-.195-.21-.122-.016-.027v-8.82l.046-.074Zm0 0" style="stroke:none;fill-rule:nonzero;fill:#d2d3d3;fill-opacity:1"/>
  <path d="M14.023.3h.993l.449.016.691.059.672.09.707.12.613.134.555.152.48.149.602.21.227.075.027.03v.15h-.016v-.09l-.101.046-.227.133-.343.196-.301.164-.196.12-.343.196-.211.121-.406.238-.36.196-.285.164-.39.226-.223.121-.617.36-.36.195-.332.195-.344.196-.254.148-.105-.047-.254-.148-.375-.211-.36-.207-.374-.211-.633-.36-.328-.18-.406-.241-.407-.227-.328-.191-.39-.227-.344-.195-.36-.211-.437-.238-.149-.09-.136-.074.031-.079.121-.058.45-.164.66-.211.449-.121.644-.133.871-.152.57-.075.497-.043Zm15.079 16.634h.011l.016.168-.074.433-.196.809-.148.554-.137.438-.285.777-.164.39-.39.84-.18.333-.211.375-.207.344-.184.285-.254.375-.195.27-.149.195-.21.27-.165.194-.12.153-.27.297-.137.168-.687.687-.121.106-.18.164-.121.105-.164.152-.121.106-.196.148-.058.032h-.121l.046-.016v-2.16l.016-3.903.074-.058.301-.164.36-.211.238-.137.332-.191.344-.196.253-.152.649-.375.312-.18.254-.148.301-.164.375-.227.164-.09.348-.195.27-.164.238-.137.39-.21Zm0 0" style="stroke:none;fill-rule:nonzero;fill:#fcfcfc;fill-opacity:1"/>
  <path d="m.39 16.98.15.06.151.089.387.226.3.18.259.149.402.226.375.227.332.18.613.359.375.21.301.18.238.133.364.211.386.227.422.238.227.137.027.058v6.059l.047.016-.137.03-.238-.179-.21-.18-.227-.21-.118-.106-.57-.57-.105-.121-.18-.18-.106-.117-.18-.211-.163-.196-.168-.21-.18-.223-.195-.274-.18-.253-.36-.54-.12-.195-.223-.39-.18-.317-.258-.508-.195-.422-.191-.449-.227-.597-.137-.407-.253-.898-.133-.543-.09-.48-.047-.297v-.106Zm0 0" style="stroke:none;fill-rule:nonzero;fill:#d3d4d4;fill-opacity:1"/>
  <path d="m18.988 12.238.078.016.043.031v5.07l-.132.09-.422.239-.39.226-.435.254-.734.422-.36.21-.374.208-.375.226-.375.211-.422.254-.3.164-.075-.015-.016-1.606v-3.402l.047-.047.39-.223.477-.285.422-.242.36-.21.343-.192.317-.184.691-.387.39-.226.239-.149.406-.226.196-.121-.016-.016-.016-.043Zm0 0" style="stroke:none;fill-rule:nonzero;fill:#fcfcfc;fill-opacity:1"/>
  <path d="m10.32 12.27.032.015v.043l.09.047.074.047.21.101.223.137.332.18.36.21.21.122.36.207.21.121.36.21.418.24.36.21.39.227.348.191.36.211.042.031.016 3.418.015 1.606.032.031-.047.016-.328-.18-.407-.242-.375-.207-.316-.184-.254-.148-.422-.239-.386-.226-.317-.18-.36-.21-.39-.223-.422-.243-.254-.148-.148-.09-.031-.062V12.3Zm-4.742 7.695.106.058.015.047v6.059l.047.016-.121.015-.031-.09v-4.5l.015-.39v-.407l.032-.703-.032-.058-.03-.016Zm0 0" style="stroke:none;fill-rule:nonzero;fill:#b2b3b3;fill-opacity:1"/>
  <path d="m.39 16.98.15.06.151.089.387.226.3.18.259.149.402.226.375.227.332.18.613.359.375.21.301.18.238.133.364.211.207.121-.043.016-.074-.031-.079-.047-.058-.028-.016-.046-.105-.016-.223-.117-.168-.09-.148-.094-.239-.117-.285-.152-.21-.133-.048-.016v-.031l-.074-.027-.21-.106-.192-.121-.168-.09-.285-.164-.524-.3-.164-.106-.105-.059-.164-.09-.274-.152-.148-.09v-.027l-.09-.031-.3-.18-.06-.047Zm0 0" style="stroke:none;fill-rule:nonzero;fill:#b0b1b1;fill-opacity:1"/>
  <path d="M19.98 1.336h.06v.148h-.017v-.09l-.101.047-.227.133-.343.196-.301.164-.196.12-.343.196-.211.121-.406.238-.36.196-.285.164-.39.226-.223.121-.617.36-.133.058v-.03l.297-.18.168-.09.207-.118.242-.152.058-.016.075-.074.316-.18.238-.148.332-.21.164-.09.254-.137.168-.106.149-.09.242-.117.207-.121.168-.09.148-.105.18-.09.18-.106.136-.058Zm0 0" style="stroke:none;fill-rule:nonzero;fill:#c9caca;fill-opacity:1"/>
  <path d="m5.7 9.586.03.016-.03.027-.016 8.867-.09-.031.047-.043v-.781l.015-7.938.028-.101Zm-.028 10.437.027.047v6.059l.047.016h-.09l-.015-.09V22.8Zm0 0" style="stroke:none;fill-rule:nonzero;fill:#818180;fill-opacity:1"/>
  <path d="m9.434 2.879.21.121.376.21.3.18.418.239.39.226.196.122.375.207.242.152.375.21.36.208.222.137.168.09.27.164v.015h-.09l-.242-.137-.195-.117-.133-.078v-.027l-.074-.016-.211-.12-.164-.09-.137-.09-.211-.133-.18-.079-.27-.148-.163-.105-.18-.09-.316-.18-.165-.09-.195-.12-.3-.18-.18-.09v-.032l-.059-.011-.316-.18-.133-.106Zm0 0" style="stroke:none;fill-rule:nonzero;fill:#b2b3b3;fill-opacity:1"/>
  <path d="m8.445 20.07.075.016.242.117.222.137.047.015.043.043.211.122.164.09.211.12.164.09.196.121.03.012v.031l.09.032.223.12.168.09.328.196.153.09.207.101.21.121.27.164.153.09.18.09.148.094.12.058.212.133.27.153.105.058v.031l.101.032.196.117.062.031v.031l.059.012.195.121.09.047v.027l.09.032.195.105.18.106.148.09v.03l-.074-.03-.402-.227-.364-.207-.312-.184-.375-.207-.332-.195L12 22.14l-.36-.211-.84-.48-.331-.196-.344-.195-.36-.207-.374-.211-.438-.254-.418-.242-.09-.06Zm0 0" style="stroke:none;fill-rule:nonzero;fill:#a0a0a0;fill-opacity:1"/>
  <path d="m14.79 25.172.03.012-.047.03Zm-.075.058.047.016-.016.016-.016.386v1.965l.016 2.133-.105-.016.03-.058.013-.227-.012-.554v-3.375l.012-.254Zm0 0" style="stroke:none;fill-rule:nonzero;fill:#d3d4d4;fill-opacity:1"/>
  <path d="M8.969 11.52H9v6.617l-.047-.016-.012-.332v-2.953l.012-3.09Zm0 0" style="stroke:none;fill-rule:nonzero;fill:#9e9f9e;fill-opacity:1"/>
  <path d="m7.035 20.82.059.032H7.05l.027 2.457v1.937l-.012.106h-.078l.016-1.606.016-2.836Zm0 0" style="stroke:none;fill-rule:nonzero;fill:#818180;fill-opacity:1"/>
  <path d="m9.36 1.305.074.015.152.09.238.121.285.164.211.133.164.094.344.191.258.153.39.222.239.137.226.137.196.117.148.09.164.09.242.136.09.059v.031h.043v.031l-.074-.03-.344-.18L12 2.862l-.375-.207-.39-.226-.36-.211-.406-.223-.196-.121-.375-.21-.312-.18-.195-.122-.047-.011Zm0 0" style="stroke:none;fill-rule:nonzero;fill:#c6c7c7;fill-opacity:1"/>
  <path d="m5.52 5.129.03.016-.105.105-.136.074-.09.047-.106.059H5.07v.03l-.18.09-.046.016v.028l-.059.015-.09.075h-.03v.03l-.18.09-.032.032-.09.016v.027l-.297.152-.152.106-.117.058-.106.059-.062.016v.03l-.09.044-.117.078-.137.043v.031l-.12.027v.032l-.134.074-.078.062-.148.09-.106.059-.148.09-.106.047-.21.101-.106.078-.09.016v.027l-.074.031-.016.032-.074.043-.031.03h-.106l.063-.062.39-.222.239-.137.39-.223.317-.18.343-.195.223-.136L4.02 6l.27-.148.194-.122.286-.164.375-.21.332-.196Zm0 0" style="stroke:none;fill-rule:nonzero;fill:#fdfdfd;fill-opacity:1"/>
  <path d="m13.262 5.203.058.016-.3.18-.196.12-.375.211-.586.344-.328.18-.3.18-.419.242-.363.21-.281.165-.332.18-.149.09h-.03l.03-.06.36-.21.133-.09.18-.09.226-.137.344-.21.168-.09.195-.106.133-.074.164-.106.226-.132.18-.09h.031v-.031l.239-.122.21-.117.133-.09.106-.062.195-.106.3-.164Zm0 0" style="stroke:none;fill-rule:nonzero;fill:#a3a4a3;fill-opacity:1"/>
  <path d="m23.79 19.98.03.016-.047.043v3.195l.016.93v1.922l-.016.016h-.09l.047-.016v-2.16l.016-3.903Zm0 0" style="stroke:none;fill-rule:nonzero;fill:#9a9a9a;fill-opacity:1"/>
  <path d="M9.18 3.031h.03v.028l-.105.062h-.03v.027H9.03v.032l-.136.09h-.043v.03l-.332.18-.149.09-.074.016v.027l-.047.032h-.047v.03l-.207.106-.121.09-.121.059H7.71v.03l-.152.06-.118.058-.105.078h-.047v.028l-.223.136-.105.032v.027l-.152.09-.133.062-.227.117-.043.047h-.031v.032l-.121.058-.207.121-.258.133-.164.074-.047-.011.375-.211.332-.196 1.094-.629.375-.21.195-.122.676-.39.344-.196Zm0 0" style="stroke:none;fill-rule:nonzero;fill:#fdfdfd;fill-opacity:1"/>
  <path d="M19.98 2.73h.016l.016.18.011.031-.074.075-.418.238-.18.09-.167.105-.239.137-.332.18-.18.074-.148.09-.164.09-.152.09-.117.046-.18.106-.106.058-.03-.015.316-.196.328-.195.285-.164.238-.137.3-.164.45-.27.211-.12.3-.164Zm0 0" style="stroke:none;fill-rule:nonzero;fill:#afb0b0;fill-opacity:1"/>
  <path d="m10.32 12.27.032.015v1.29l.011 1.695-.011 2.07.027.047-.059-.032-.015-.046V12.3Zm0 0" style="stroke:none;fill-rule:nonzero;fill:#818180;fill-opacity:1"/>
  <path d="M22.41 22.14h.016l.015.313.012 1.668v1.242l-.074-.011v-.84l.016-1.383Zm0 0" style="stroke:none;fill-rule:nonzero;fill:#c4c5c5;fill-opacity:1"/>
  <path d="m.39 16.98.15.06.151.089.387.226.3.18.259.149.402.226.375.227.332.18.613.359.375.21.243.15-.032.015-.27-.153-.331-.18-.375-.222-.39-.21-.345-.212-.312-.18-.348-.195-.312-.195-.121-.059-.512-.3-.195-.122-.043-.011Zm0 0" style="stroke:none;fill-rule:nonzero;fill:#818180;fill-opacity:1"/>
  <path d="M18.18 2.34h.047l-.016.058-.375.211-.36.211-.062.059-.27.152-.316.18-.297.164-.511.3-.133.06v-.032l.297-.18.168-.09.207-.117.242-.152.058-.016.075-.074.316-.18.238-.148.332-.21.164-.09Zm0 0" style="stroke:none;fill-rule:nonzero;fill:#cacbcb;fill-opacity:1"/>
  <path d="m13.695 8.773.043.016-.191.121-.317.18-.27.148-.226.137-.285.164-.27.152-.3.18-.524.3h-.03l.015-.046.148-.09.317-.195.21-.106.212-.12.27-.165.073-.043.39-.21.36-.227.211-.117Zm0 0" style="stroke:none;fill-rule:nonzero;fill:#b7b8b8;fill-opacity:1"/>
  <path d="m9.074 21.988.09.032.36.21.273.149.254.152.344.196.39.222.735.422.3.18.328.18.168.105-.03.016-.09-.047-.301-.164-.375-.227-.223-.117-.184-.094-.133-.09-.242-.148-.238-.137-.21-.101-.134-.09-.437-.258-.164-.09-.149-.074-.09-.059-.136-.078-.106-.074ZM1.71 16.215l.106.015.196.106.18.105.132.09.164.09.137.09.164.09.152.09.164.09.254.148.332.18.09.062.133.074.106.075-.032.015-.402-.226-.422-.239-.39-.226-.254-.149-.223-.136-.258-.149-.238-.137-.09-.043ZM19.98 2.73h.016v.196l-.137.09-.328.18-.36.21-.39.223-.422.226-.418.239-.03-.016.237-.148.274-.149.191-.12.317-.165.195-.121.328-.195.211-.121.3-.164Zm0 0" style="stroke:none;fill-rule:nonzero;fill:#818180;fill-opacity:1"/>
  <path d="m11.578 19.621.211.106.36.207.421.242.39.222.09.063-.015.027-.148-.058-.168-.09v-.031l-.106-.028-.058-.047-.075-.03-.074-.044-.152-.074-.059-.063-.105-.043v-.03l-.059-.016-.168-.09-.074-.043-.059-.047-.105-.043-.074-.063h.027Zm0 0" style="stroke:none;fill-rule:nonzero;fill:#a8a8a8;fill-opacity:1"/>
  <path d="m8.445 20.07.075.016.242.117.222.137.047.015.043.043.211.122.164.09.211.12.164.09.196.121.03.012v.031l.09.032.223.12.016.028-.149-.043-.39-.226-.735-.418-.253-.153-.391-.222Zm0 0" style="stroke:none;fill-rule:nonzero;fill:#a0a0a0;fill-opacity:1"/>
  <path d="m9.434 2.879.21.121.376.21.3.18.418.239.39.226.196.122.375.207.063.062-.09-.031-.242-.137-.285-.164-.317-.18-.27-.148-.222-.137-.36-.21-.242-.134-.254-.152-.046-.027Zm0 0" style="stroke:none;fill-rule:nonzero;fill:#818180;fill-opacity:1"/>
  <path d="M3.137 6.512h.027v.043l-.133.074-.078.062-.148.09-.106.059-.148.09-.106.047-.21.101-.106.078-.09.016v.027l-.074.031-.016.032-.074.043-.031.03h-.106l.063-.062.39-.222.239-.137.39-.223Zm0 0" style="stroke:none;fill-rule:nonzero;fill:#fdfdfd;fill-opacity:1"/>
  <path d="m19.066 1.875.059.016-.195.12-.39.223-.24.137-.405.238-.36.196-.074.03.059-.062.406-.222.254-.153h.03l.028-.074.09-.074.227-.137.164-.09h.12l.15-.09h.03l.016-.042Zm0 0" style="stroke:none;fill-rule:nonzero;fill:#abacab;fill-opacity:1"/>
  <path d="m11.863 4.305.078.03.375.212.36.207.222.137.168.09.27.164v.015h-.09l-.242-.137-.195-.117-.133-.078v-.027l-.074-.016-.211-.12-.164-.09-.137-.09-.211-.133Zm0 0" style="stroke:none;fill-rule:nonzero;fill:#a0a1a0;fill-opacity:1"/>
  <path d="m11.414 6.27.016.03-.614.345-.27.164-.062.062-.21.117-.27.153-.313.18h-.03l.03-.06.36-.21.133-.09.18-.09.226-.137.344-.21.168-.09.195-.106Zm0 0" style="stroke:none;fill-rule:nonzero;fill:#b3b4b4;fill-opacity:1"/>
  <path d="M14.672 9.766h.09l.328.18.226.132-.062.031-.117-.074-.332-.18-.043-.046-.106-.012-.031.058-.09.06-.254.136-.078.043-.101.078-.106.058-.09.016-.031.043h-.09l.074-.059.36-.21.316-.18Zm0 0" style="stroke:none;fill-rule:nonzero;fill:#9e9e9e;fill-opacity:1"/>
  <path d="M23.762 23.234h.011l.016.93v1.922l-.043.016Zm0 0" style="stroke:none;fill-rule:nonzero;fill:#c6c7c7;fill-opacity:1"/>
  <path d="m9.36 1.336.074.016.257.148.329.18.253.148.332.195.375.211.375.227.407.223.164.105-.031.016-.407-.227-.328-.191-.39-.227-.344-.195-.36-.211-.437-.238-.149-.09-.12-.074Zm0 0" style="stroke:none;fill-rule:nonzero;fill:#818180;fill-opacity:1"/>
  <path d="m10.29 21.137.136.027.105.063.328.195.153.09.207.101.21.121.212.137.03.059-.077-.032-.403-.222-.902-.528Zm0 0" style="stroke:none;fill-rule:nonzero;fill:#9d9e9d;fill-opacity:1"/>
  <path d="M22.426 22.453h.015l.012 1.668v1.242l-.027-.011-.016-.079Zm0 0" style="stroke:none;fill-rule:nonzero;fill:#818180;fill-opacity:1"/>
  <path d="m17.297 2.895.058.015-.359.211-.36.195-.616.36-.133.058v-.03l.297-.18.168-.09.207-.118.242-.152.058-.016.075-.074.21-.12.106-.044Zm0 0" style="stroke:none;fill-rule:nonzero;fill:#afafaf;fill-opacity:1"/>
  <path d="M12.422 9.496h.09l-.063.043-.27.152-.3.18-.524.3h-.03l.015-.046.148-.09.317-.195.21-.106.212-.12Zm0 0" style="stroke:none;fill-rule:nonzero;fill:#b8b9b9;fill-opacity:1"/>
  <path d="M12.105 5.863h.032v.032l-.258.136-.254.149-.105.09-.391.226-.418.238-.152.09-.028-.015.133-.09.242-.133.207-.121.285-.164h.032l.03-.063.15-.101.163-.09.106-.063.121-.058h.031v-.031Zm0 0" style="stroke:none;fill-rule:nonzero;fill:#8f8f8e;fill-opacity:1"/>
  <path d="M13.754 10.29h.031l-.031.062-.043.011-.016.032-.136.074-.286.168-.207.101-.27.153-.046-.016.375-.227.422-.238Zm0 0" style="stroke:none;fill-rule:nonzero;fill:#9a9a9a;fill-opacity:1"/>
  <path d="m11.953 2.773.738.422.09.059v.031h.043v.031l-.074-.03-.344-.18L12 2.862l-.074-.043v-.03Zm0 0" style="stroke:none;fill-rule:nonzero;fill:#a8a8a8;fill-opacity:1"/>
  <path d="m10.77 2.086.84.48.343.207-.043.016-.734-.418-.36-.21-.078-.06Zm0 0" style="stroke:none;fill-rule:nonzero;fill:#c3c4c4;fill-opacity:1"/>
  <path d="m12.344 7.305.031.015-.047.043-.27.168H12l-.016.043-.195.106-.238.136-.063-.015.242-.153.375-.207Zm0 0" style="stroke:none;fill-rule:nonzero;fill:#b2b3b3;fill-opacity:1"/>
  <path d="m12.676 4.785.074.016.254.148.137.074.195.122v.015h-.09l-.242-.137-.195-.117-.133-.078Zm0 0" style="stroke:none;fill-rule:nonzero;fill:#a7a8a8;fill-opacity:1"/>
  <path d="m5.52 5.129.03.016-.105.105-.136.074-.09.047-.106.059H5.07v.03l-.18.09-.046.016v.028L4.8 5.578l.074-.074.344-.195Zm0 0" style="stroke:none;fill-rule:nonzero;fill:#fdfdfd;fill-opacity:1"/>
  <path d="M10.77 8.203h.03l-.015.047-.074.047h-.047v.027l-.418.242-.137.075-.132.058-.032-.015.36-.207.316-.18Zm0 0" style="stroke:none;fill-rule:nonzero;fill:#aeaeae;fill-opacity:1"/>
  <path d="m10.484 6.824.047.016-.258.148-.27.153-.312.18h-.03l.03-.06.18-.105.164-.09.074-.03.27-.15Zm0 0" style="stroke:none;fill-rule:nonzero;fill:#a3a3a3;fill-opacity:1"/>
  <path d="m8.852 7.754.058.016-.676.39h-.03l.03-.058.137-.079.149-.09.21-.117Zm0 0" style="stroke:none;fill-rule:nonzero;fill:#a4a5a5;fill-opacity:1"/>
  <path d="m14.578 8.266.047.015-.227.133-.523.3h-.031v-.03l.168-.106h.058l.016-.043.434-.238Zm0 0" style="stroke:none;fill-rule:nonzero;fill:#b5b5b5;fill-opacity:1"/>
  <path d="m10.59 19.05.074.028.27.152.257.149-.062.031-.18-.09v-.03l-.105-.028-.164-.121-.059-.032Zm0 0" style="stroke:none;fill-rule:nonzero;fill:#a5a5a5;fill-opacity:1"/>
  <path d="m19.965 1.363.074.016v.105h-.016v-.09l-.101.047-.227.133-.343.196-.196.105-.031-.016.195-.12.375-.208.254-.152Zm0 0" style="stroke:none;fill-rule:nonzero;fill:#818180;fill-opacity:1"/>
  <path d="m13.262 20.594.09.031.359.21.117.075-.058.031-.122-.062v-.027l-.058-.016-.031-.031-.043-.016-.211-.117-.059-.047Zm0 0" style="stroke:none;fill-rule:nonzero;fill:#a8a9a9;fill-opacity:1"/>
  <path d="m13.262 5.203.058.016-.3.18-.196.12-.285.165-.027-.012.148-.106.164-.09.047-.046.117-.075.211-.105Zm0 0" style="stroke:none;fill-rule:nonzero;fill:#a4a5a4;fill-opacity:1"/>
  <path d="m13.395 22.89.152.09.043.016v.027l.09.032.195.105.18.106.148.09v.03l-.074-.03-.402-.227-.364-.207Zm0 0" style="stroke:none;fill-rule:nonzero;fill:#9c9d9c;fill-opacity:1"/>
  <path d="m8.445 20.07.075.016.242.117.222.137.047.015.059.075-.074-.016-.407-.223-.164-.105Zm0 0" style="stroke:none;fill-rule:nonzero;fill:#a4a4a4;fill-opacity:1"/>
  <path d="M14.684 9.781h.105l.406.223.121.074-.062.031-.117-.074-.332-.18-.043-.046-.078-.012Zm0 0" style="stroke:none;fill-rule:nonzero;fill:#a5a6a6;fill-opacity:1"/>
  <path d="m11.281 10.172.043.012-.36.21-.343.196-.047.015.016-.046.254-.149.36-.195Zm0 0" style="stroke:none;fill-rule:nonzero;fill:#b3b4b4;fill-opacity:1"/>
  <path d="M14.7 18.238h.015v1.606l-.059-.028.028-.062Zm0 0" style="stroke:none;fill-rule:nonzero;fill:#d3d4d4;fill-opacity:1"/>
  <path d="m10.32 12.27.032.015-.016 1.29h-.016l-.015-1.052v-.222Zm0 0" style="stroke:none;fill-rule:nonzero;fill:#818180;fill-opacity:1"/>
  <path d="m18.797 8.297.18.09.539.312-.047.016-.164-.09-.133-.074-.094-.047-.117-.074-.09-.059-.074-.047Zm0 0" style="stroke:none;fill-rule:nonzero;fill:#b7b8b7;fill-opacity:1"/>
  <path d="m17.297 2.895.058.015-.359.211-.031.016h-.09l.074-.078.301-.149Zm0 0" style="stroke:none;fill-rule:nonzero;fill:#babbbb;fill-opacity:1"/>
  <path d="m17.953 7.816.211.106.316.18.122.074-.047.015-.18-.09-.031-.03-.106-.048-.164-.101-.12-.078Zm0 0" style="stroke:none;fill-rule:nonzero;fill:#b8b9b9;fill-opacity:1"/>
  <path d="m19.066 1.875.059.016-.195.12-.39.223-.165.09-.031-.015.168-.106.285-.164.117-.059.074-.046h.032l.015-.043Zm0 0" style="stroke:none;fill-rule:nonzero;fill:#818180;fill-opacity:1"/>
  <path d="M14.191 10.035h.043l-.03.059-.102.078-.106.058-.09.016-.031.043h-.09l.074-.059Zm0 0" style="stroke:none;fill-rule:nonzero;fill:#a6a7a6;fill-opacity:1"/>
  <path d="m10.29 21.137.136.027.105.063.27.164.027.058-.074-.027-.39-.227-.075-.047Zm0 0" style="stroke:none;fill-rule:nonzero;fill:#9e9e9e;fill-opacity:1"/>
  <path d="M11.762 9.871h.027l-.027.074-.39.211-.048.016.016-.047.148-.09Zm0 0" style="stroke:none;fill-rule:nonzero;fill:#b1b1b1;fill-opacity:1"/>
  <path d="M11.398 7.844h.032v.031l-.075.059-.105.062-.121.043-.223.137-.062.027-.043-.012.36-.21Zm0 0" style="stroke:none;fill-rule:nonzero;fill:#979796;fill-opacity:1"/>
  <path d="m9.629 7.32.031.016-.195.117-.344.195-.18.106h-.03l.015-.043.12-.074.118-.047.36-.211Zm0 0" style="stroke:none;fill-rule:nonzero;fill:#8a8a89;fill-opacity:1"/>
  <path d="m12.93 22.621.105.043.211.121v.031l.059.012.09.063-.043.015-.364-.195-.058-.063Zm0 0" style="stroke:none;fill-rule:nonzero;fill:#a1a2a2;fill-opacity:1"/>
  <path d="M13.754 10.29h.031l-.031.062-.043.011-.016.032-.136.074-.207.12-.032-.015.075-.058.074-.032.015-.043Zm0 0" style="stroke:none;fill-rule:nonzero;fill:#a6a7a7;fill-opacity:1"/>
  <path d="m11.371 2.445.074.032.27.148.238.148-.043.016-.523-.3Zm0 0" style="stroke:none;fill-rule:nonzero;fill:#c6c7c7;fill-opacity:1"/>
  <path d="m10.2 1.785.073.016.211.12.27.15.016.03-.09-.015-.36-.211-.12-.074Zm0 0" style="stroke:none;fill-rule:nonzero;fill:#c3c4c4;fill-opacity:1"/>
  <path d="m16.559 10.816.09.028.331.195-.058.031-.078-.03.015-.028-.074-.016-.09-.062-.105-.059Zm0 0" style="stroke:none;fill-rule:nonzero;fill:#a6a7a7;fill-opacity:1"/>
  <path d="m7.98 8.266.043.015-.359.207-.105.063H7.53l.016-.047.164-.106.117-.058Zm0 0" style="stroke:none;fill-rule:nonzero;fill:#a0a1a0;fill-opacity:1"/>
  <path d="m14.879 8.309.09.015.347.196.118.074v.031l-.075-.031-.27-.149-.21-.12Zm0 0" style="stroke:none;fill-rule:nonzero;fill:#b4b5b5;fill-opacity:1"/>
  <path d="m12.824 9.27.031.015-.058.059-.242.136-.016.016h-.09l.074-.074.243-.121Zm0 0" style="stroke:none;fill-rule:nonzero;fill:#babbbb;fill-opacity:1"/>
  <path d="m12.164 5.863.031.016-.332.195-.27.153-.027-.016.164-.106.286-.164Zm0 0" style="stroke:none;fill-rule:nonzero;fill:#818180;fill-opacity:1"/>
  <path d="m9.898 20.879.153.074v.031l.09.032.222.12.016.028-.149-.043-.332-.195Zm0 0" style="stroke:none;fill-rule:nonzero;fill:#a0a1a0;fill-opacity:1"/>
  <path d="m12.914 6.977.031.011-.03.047-.134.059h-.031v.031l-.121.059h-.043v.03l-.121.06-.09.03.047-.042.387-.227Zm0 0" style="stroke:none;fill-rule:nonzero;fill:#a4a5a4;fill-opacity:1"/>
  <path d="M16.379 3.422h.031v.027l-.21.121-.24.133-.073.031v-.03l.297-.18.168-.09Zm0 0" style="stroke:none;fill-rule:nonzero;fill:#b3b4b3;fill-opacity:1"/>
  <path d="m17.219 7.395.078.03.297.165.047.047-.047.011-.059-.027-.015-.031-.106-.043-.133-.078-.062-.059Zm0 0" style="stroke:none;fill-rule:nonzero;fill:#b8b9b9;fill-opacity:1"/>
  <path d="m14.684 5.953.09.016.3.18-.027.015-.184-.09-.074-.043-.133-.015-.09.03L14.61 6Zm0 0" style="stroke:none;fill-rule:nonzero;fill:#aeaeae;fill-opacity:1"/>
  <path d="m5.52 5.129.03.016-.105.105-.136.074-.09.047.015-.062.137-.09Zm0 0" style="stroke:none;fill-rule:nonzero;fill:#fafafa;fill-opacity:1"/>
  <path d="m9.645 7.29.015.03-.375.211-.18.106-.03-.016.195-.121.12-.074.165-.09Zm0 0" style="stroke:none;fill-rule:nonzero;fill:#b3b4b4;fill-opacity:1"/>
  <path d="m10.484 6.824.047.016-.258.148-.238.137-.031-.016.137-.09.238-.132Zm0 0" style="stroke:none;fill-rule:nonzero;fill:#818180;fill-opacity:1"/>
  <path d="m12.39 3.074.223.074.168.106v.031h.043v.031l-.074-.03-.344-.18Zm0 0" style="stroke:none;fill-rule:nonzero;fill:#a6a6a6;fill-opacity:1"/>
  <path d="m14.219 21.137.168.09.117.074-.059.027-.164-.09-.047-.043-.043-.015.012-.032Zm0 0" style="stroke:none;fill-rule:nonzero;fill:#abacac;fill-opacity:1"/>
  <path d="m9 18.137.09.027.226.137-.046.015-.075-.015L9 18.18Zm0 0" style="stroke:none;fill-rule:nonzero;fill:#a0a0a0;fill-opacity:1"/>
  <path d="m16.395 6.914.21.106.196.12v.016h-.074l-.047-.047-.106-.043-.105-.078-.074-.027Zm0 0" style="stroke:none;fill-rule:nonzero;fill:#b8b9b9;fill-opacity:1"/>
  <path d="m11.805 7.605.03.016-.062.074-.207.106-.078.015.063-.062Zm0 0" style="stroke:none;fill-rule:nonzero;fill:#adadad;fill-opacity:1"/>
  <path d="m12.988 5.387.032.011-.196.122-.285.164-.027-.012.148-.106Zm0 0" style="stroke:none;fill-rule:nonzero;fill:#818180;fill-opacity:1"/>
  <path d="m13.77 29.219.136.047.059.015.047.043.148.09v.031l-.09-.03-.3-.18Zm0 0" style="stroke:none;fill-rule:nonzero;fill:#d3d4d4;fill-opacity:1"/>
  <path d="m12.602 24.016.09.03.328.192-.043.016-.18-.09v-.027l-.078-.032-.117-.074Zm0 0" style="stroke:none;fill-rule:nonzero;fill:#818180;fill-opacity:1"/>
  <path d="m26.953 16.621.047.016-.422.238h-.027v-.031Zm0 0" style="stroke:none;fill-rule:nonzero;fill:#b3b4b4;fill-opacity:1"/>
  <path d="m8.566 7.934.028.015-.254.153-.106.058h-.03l.03-.058.137-.079.106-.043Zm0 0" style="stroke:none;fill-rule:nonzero;fill:#939493;fill-opacity:1"/>
  <path d="m17.46 2.762.06.027-.106.09-.164.047.074-.074Zm0 0" style="stroke:none;fill-rule:nonzero;fill:#c0c1c1;fill-opacity:1"/>
  <path d="m13.559 20.773.078.016.191.121-.058.031-.122-.062v-.027l-.058-.016-.031-.031Zm0 0" style="stroke:none;fill-rule:nonzero;fill:#ababab;fill-opacity:1"/>
  <path d="m13.695 8.773.043.016-.191.121-.047.031h-.09l.043-.046Zm0 0" style="stroke:none;fill-rule:nonzero;fill:#b5b5b5;fill-opacity:1"/>
  <path d="M13.363 8.941h.106L13.395 9l-.165.09-.03-.016.073-.074Zm0 0" style="stroke:none;fill-rule:nonzero;fill:#acadac;fill-opacity:1"/>
  <path d="m9.09 20.414.164.09.09.047.031.043-.09-.016-.226-.133Zm0 0" style="stroke:none;fill-rule:nonzero;fill:#a1a1a1;fill-opacity:1"/>
  <path d="m9.36 1.305.074.015.152.09.09.043v.031l.043.016-.028.016-.21-.121-.06-.043h-.077Zm0 0" style="stroke:none;fill-rule:nonzero;fill:#c3c4c4;fill-opacity:1"/>
  <path d="m9.855 18.629.075.031.21.121-.062.028-.058-.059-.133-.059Zm0 0" style="stroke:none;fill-rule:nonzero;fill:#a5a6a6;fill-opacity:1"/>
  <path d="M10.77 8.203h.03l-.015.047-.074.047h-.047v.027l-.105.063h-.075l.075-.063Zm0 0" style="stroke:none;fill-rule:nonzero;fill:#a5a5a5;fill-opacity:1"/>
  <path d="m13.004 3.422.137.043.21.12v.028l-.09-.027-.257-.152Zm0 0" style="stroke:none;fill-rule:nonzero;fill:#afafaf;fill-opacity:1"/>
  <path d="m4.516 19.363.074.016.254.152-.043.016-.074-.031-.079-.047-.058-.028-.016-.046h-.058Zm0 0" style="stroke:none;fill-rule:nonzero;fill:#9d9e9d;fill-opacity:1"/>
  <path d="m15.855 10.41.09.031.196.118-.063.03-.043-.042v-.031l-.105-.016-.075-.059Zm0 0" style="stroke:none;fill-rule:nonzero;fill:#a5a5a5;fill-opacity:1"/>
  <path d="M19.98 1.336h.06l-.017.043-.074.016-.21.12h-.028l.016-.046.18-.09Zm0 0" style="stroke:none;fill-rule:nonzero;fill:#c4c5c5;fill-opacity:1"/>
  <path d="m12.809 5.46.03.017-.089.058-.137.074-.101.075-.032-.012.133-.106.106-.062Zm0 0" style="stroke:none;fill-rule:nonzero;fill:#b3b4b4;fill-opacity:1"/>
  <path d="m11.953 2.773.184.106.011.062-.074-.03-.148-.09v-.032Zm0 0" style="stroke:none;fill-rule:nonzero;fill:#a5a6a6;fill-opacity:1"/>
  <path d="m19.738 8.852.09.027.211.121-.059.031-.058-.062-.106-.043-.078-.047Zm0 0" style="stroke:none;fill-rule:nonzero;fill:#bcbdbc;fill-opacity:1"/>
  <path d="m12.344 7.305.031.015-.047.043-.148.09h-.075l.043-.043Zm0 0" style="stroke:none;fill-rule:nonzero;fill:#aaa;fill-opacity:1"/>
  <path d="m15.45 10.172.152.074.117.074-.059.032-.09-.079-.074-.027-.047-.047Zm0 0" style="stroke:none;fill-rule:nonzero;fill:#a7a7a7;fill-opacity:1"/>
  <path d="m18.328 8.023.184.09.09.063-.047.015-.18-.09-.047-.046Zm0 0" style="stroke:none;fill-rule:nonzero;fill:#b6b7b7;fill-opacity:1"/>
  <path d="m12.93 22.621.105.043.09.063.016.027-.09-.016-.106-.058Zm0 0" style="stroke:none;fill-rule:nonzero;fill:#a3a4a4;fill-opacity:1"/>
  <path d="m11.297 19.453.18.094.101.058-.043.032-.058-.032-.106-.074-.062-.031Zm0 0" style="stroke:none;fill-rule:nonzero;fill:#a1a2a1;fill-opacity:1"/>
  <path d="M28.754 17.129h.031v.031l-.12.059-.09.062-.15.043.044-.043Zm0 0" style="stroke:none;fill-rule:nonzero;fill:#959594;fill-opacity:1"/>
  <path d="m10.816 10.426.012.043-.223.136h-.03l.015-.046Zm0 0" style="stroke:none;fill-rule:nonzero;fill:#b3b4b3;fill-opacity:1"/>
  <path d="M9.66 8.852h.031l-.015.043h-.063v.03l-.207.106-.031-.015Zm0 0" style="stroke:none;fill-rule:nonzero;fill:#aeaeae;fill-opacity:1"/>
  <path d="m17.234 4.469.032.015-.153.106-.117.058-.062-.011Zm0 0" style="stroke:none;fill-rule:nonzero;fill:#9c9d9d;fill-opacity:1"/>
  <path d="M19.68 1.484h.03l-.015.063-.21.09h-.044l.133-.09Zm0 0" style="stroke:none;fill-rule:nonzero;fill:#cdcece;fill-opacity:1"/>
  <path d="m13.922 23.203.058.016.223.136v.032l-.074-.032-.207-.12Zm0 0" style="stroke:none;fill-rule:nonzero;fill:#9fa0a0;fill-opacity:1"/>
  <path d="m8.64 21.734.09.032.239.148-.028.016-.27-.149Zm0 0" style="stroke:none;fill-rule:nonzero;fill:#818180;fill-opacity:1"/>
  <path d="M27.66 17.762h.031v.027l-.226.121-.074.016.043-.047Zm0 0" style="stroke:none;fill-rule:nonzero;fill:#a5a5a5;fill-opacity:1"/>
  <path d="M11.926 9.781h.09l-.075.059-.136.074-.032-.016.079-.074Zm0 0" style="stroke:none;fill-rule:nonzero;fill:#aeaeae;fill-opacity:1"/>
  <path d="m14.07 8.566.043.012-.238.137h-.031v-.031l.168-.106Zm0 0" style="stroke:none;fill-rule:nonzero;fill:#b0b0b0;fill-opacity:1"/>
  <path d="m8.324 21.555.09.03.227.134-.047.015-.106-.058-.164-.106Zm0 0" style="stroke:none;fill-rule:nonzero;fill:#818180;fill-opacity:1"/>
  <path d="m4.844 19.547.21.101.075.063h-.09l-.09-.074-.105-.063Zm0 0" style="stroke:none;fill-rule:nonzero;fill:#9d9e9e;fill-opacity:1"/>
  <path d="m19.574 1.574.031.016-.253.148-.032-.011.043-.016.032-.063.09-.027Zm0 0" style="stroke:none;fill-rule:nonzero;fill:#bcbdbd;fill-opacity:1"/>
  <path d="m18.797 8.297.18.09.074.058-.063.016-.117-.09-.074-.047Zm0 0" style="stroke:none;fill-rule:nonzero;fill:#b5b5b5;fill-opacity:1"/>
  <path d="M12.105 5.863h.032v.032l-.227.12L11.88 6l.074-.059.078-.015v-.031Zm0 0" style="stroke:none;fill-rule:nonzero;fill:#b3b4b4;fill-opacity:1"/>
  <path d="m19.066 1.875.059.016-.195.12-.075.044-.03-.016.105-.074.09-.031.015-.043Zm0 0" style="stroke:none;fill-rule:nonzero;fill:#8a8a89;fill-opacity:1"/>
  <path d="M9.809 7.184h.03l-.015.062-.133.074h-.03l.03-.058Zm0 0" style="stroke:none;fill-rule:nonzero;fill:#9fa09f;fill-opacity:1"/>
  <path d="m10.32 12.27.032.015v.195l-.032.06-.015-.017v-.222Zm0 0" style="stroke:none;fill-rule:nonzero;fill:#868786;fill-opacity:1"/>
  <path d="M11.398 7.844h.032v.031l-.075.059-.105.062h-.031v-.031l.078-.059Zm0 0" style="stroke:none;fill-rule:nonzero;fill:#acadac;fill-opacity:1"/>
  <path d="m13.71 23.086.09.027.122.078v.028l-.094-.028-.117-.078Zm0 0" style="stroke:none;fill-rule:nonzero;fill:#9d9e9d;fill-opacity:1"/>
  <path d="m10.29 21.137.136.027.058.047v.027l.047.016-.031.016-.21-.122Zm0 0" style="stroke:none;fill-rule:nonzero;fill:#919291;fill-opacity:1"/>
  <path d="m12.977 4.95.09.03.195.122-.032.011-.226-.117Zm0 0" style="stroke:none;fill-rule:nonzero;fill:#818180;fill-opacity:1"/>
  <path d="m11.7 2.656.09.016.163.101-.043.016-.21-.117Zm0 0" style="stroke:none;fill-rule:nonzero;fill:#c5c6c6;fill-opacity:1"/>
  <path d="m10.02 1.648.164.09.046.047-.09-.015-.12-.075Zm0 0" style="stroke:none;fill-rule:nonzero;fill:#c7c8c8;fill-opacity:1"/>
  <path d="M11.762 9.871h.027l-.027.074-.137.032.059-.063Zm0 0" style="stroke:none;fill-rule:nonzero;fill:#c0c1c0;fill-opacity:1"/>
  <path d="M14.684 9.781h.105l.106.059-.016.047-.074-.032-.043-.046-.078-.012Zm0 0" style="stroke:none;fill-rule:nonzero;fill:#a4a5a5;fill-opacity:1"/>
  <path d="m12.914 6.977.031.011-.03.047-.134.059-.078.015.078-.058Zm0 0" style="stroke:none;fill-rule:nonzero;fill:#a3a4a3;fill-opacity:1"/>
  <path d="m13.156 6.84.028.015-.075.06-.105.062-.059-.016Zm0 0" style="stroke:none;fill-rule:nonzero;fill:#a2a3a2;fill-opacity:1"/>
  <path d="M11.55 6.18h.028l-.012.058-.078.047-.058-.015.074-.06Zm0 0" style="stroke:none;fill-rule:nonzero;fill:#a4a5a5;fill-opacity:1"/>
  <path d="m16.172 5.129.074.016-.062.046-.012.028-.078-.016-.016-.043Zm0 0" style="stroke:none;fill-rule:nonzero;fill:#f4f4f4;fill-opacity:1"/>
  <path d="m9.375 20.578.121.063.027.058-.074-.027-.105-.063Zm0 0" style="stroke:none;fill-rule:nonzero;fill:#9a9b9a;fill-opacity:1"/>
  <path d="m13.02 24.254.09.031.163.106-.027.015-.195-.105Zm0 0" style="stroke:none;fill-rule:nonzero;fill:#818180;fill-opacity:1"/>
  <path d="m10.59 19.05.074.028.106.063-.06.03-.089-.062Zm0 0" style="stroke:none;fill-rule:nonzero;fill:#a2a3a2;fill-opacity:1"/>
  <path d="M10.98 10.336h.032l-.016.043-.137.074h-.03l.015-.043Zm0 0" style="stroke:none;fill-rule:nonzero;fill:#bbb;fill-opacity:1"/>
  <path d="M12.422 9.496h.09l-.063.043-.105.063-.028-.016.059-.063Zm0 0" style="stroke:none;fill-rule:nonzero;fill:#a9aaa9;fill-opacity:1"/>
  <path d="M13.004 9.164h.031l-.015.047-.149.09-.031-.016.058-.058Zm0 0" style="stroke:none;fill-rule:nonzero;fill:#b0b0b0;fill-opacity:1"/>
  <path d="m20.04 9.016.073.03.184.102-.031.016-.211-.105Zm0 0" style="stroke:none;fill-rule:nonzero;fill:#b5b5b5;fill-opacity:1"/>
  <path d="m17.297 2.895.058.015-.152.09h-.027v-.031h.027l.031-.059Zm0 0" style="stroke:none;fill-rule:nonzero;fill:#a4a5a4;fill-opacity:1"/>
  <path d="m26.715 16.754.047.016-.184.105h-.027v-.031Zm0 0" style="stroke:none;fill-rule:nonzero;fill:#afafaf;fill-opacity:1"/>
  <path d="m12.93 10.77.047.015-.18.106-.047-.016Zm0 0" style="stroke:none;fill-rule:nonzero;fill:#9e9e9e;fill-opacity:1"/>
  <path d="m15.898 8.895.09.015.121.074v.032l-.074-.032-.137-.074Zm0 0" style="stroke:none;fill-rule:nonzero;fill:#b4b4b4;fill-opacity:1"/>
  <path d="m10.816 21.406.09.043.059.047v.027l-.09-.027-.059-.062Zm0 0" style="stroke:none;fill-rule:nonzero;fill:#a2a3a3;fill-opacity:1"/>
  <path d="m10.14 8.566.032.012-.078.078-.149.043.043-.043Zm0 0" style="stroke:none;fill-rule:nonzero;fill:#a2a3a2;fill-opacity:1"/>
  <path d="m17.219 7.395.078.03.074.044.016.047-.09-.032-.078-.074Zm0 0" style="stroke:none;fill-rule:nonzero;fill:#bebfbf;fill-opacity:1"/>
  <path d="M13.621 6.57h.027l-.011.043-.168.078-.028-.015Zm0 0" style="stroke:none;fill-rule:nonzero;fill:#aeaeae;fill-opacity:1"/>
  <path d="m14.852 6.047.074.012.148.09-.027.015-.184-.09Zm0 0" style="stroke:none;fill-rule:nonzero;fill:#b6b7b7;fill-opacity:1"/>
  <path d="m17.191 2.941.012.028h-.027v.047l-.074.043h-.032l.016-.043h.027l.032-.063Zm0 0" style="stroke:none;fill-rule:nonzero;fill:#b1b1b1;fill-opacity:1"/>
  <path d="m10.59 1.996.09.027.09.063-.06.016-.105-.063Zm0 0" style="stroke:none;fill-rule:nonzero;fill:#c8c9c9;fill-opacity:1"/>
  <path d="m14.863 9.855.09.016.047.027-.016.047-.105-.047Zm0 0" style="stroke:none;fill-rule:nonzero;fill:#abacac;fill-opacity:1"/>
  <path d="m12.137 2.895.09.03.117.075-.043.016-.09-.047V2.94l-.074-.015Zm0 0" style="stroke:none;fill-rule:nonzero;fill:#c9caca;fill-opacity:1"/>
  <path d="m9.36 1.336.074.016.136.09-.03.011-.18-.101Zm0 0" style="stroke:none;fill-rule:nonzero;fill:#848484;fill-opacity:1"/>
</svg>
